# xmcd
#
# Track frame offsets: 
#        150
#        17917
#        36484
#        53470
#        68339
#        86701
#        108031
#        125626
#        139405
#        152473
#        176673
#
# Disc length: 2662 seconds
#
# Revision: 0
# Processed by: cddbd v1.5.2PL0 Copyright (c) Steve Scherf et al.
# Submitted via: ExactAudioCopy v0.99pb3
#
DISCID=8b0a640b
DTITLE=Rodney Parker - The Lonesome Dirge
DYEAR=2008
DGENRE=Country
TTITLE0=Firefight
TTITLE1=10lb. Test
TTITLE2=Atlantic City
TTITLE3=In The River
TTITLE4=Brother
TTITLE5=Ghost
TTITLE6=Wild Man From Borneo
TTITLE7=A Knife Beneath Your Pillow
TTITLE8=I'm Never Getting Married
TTITLE9=Tell Me What It Is
TTITLE10=11 Hours
EXTD=
EXTT0=
EXTT1=
EXTT2=
EXTT3=
EXTT4=
EXTT5=
EXTT6=
EXTT7=
EXTT8=
EXTT9=
EXTT10=
PLAYORDER=
